<?xml version="1.0" standalone="no"?>
<!DOCTYPE svg PUBLIC "-//W3C//DTD SVG 20010904//EN"
 "http://www.w3.org/TR/2001/REC-SVG-20010904/DTD/svg10.dtd">
<svg version="1.0" xmlns="http://www.w3.org/2000/svg"
 width="22px" height="22px" viewBox="0 0 512 512"
 preserveAspectRatio="xMidYMid meet">

<g transform="translate(0.000000,512.000000) scale(0.100000,-0.100000)"
fill="#000000" stroke="none">
<path d="M2024 5106 c-205 -47 -376 -180 -464 -360 -68 -138 -71 -164 -77
-513 l-6 -313 -468 0 -468 0 -28 -24 -28 -24 -3 -1237 c-1 -819 1 -1250 8
-1275 21 -76 119 -77 140 -1 6 23 10 455 10 1224 l0 1187 420 0 420 0 0 -203
c0 -209 7 -260 37 -283 23 -17 63 -17 86 0 30 23 37 74 37 283 l0 203 520 0
520 0 0 -203 c0 -209 7 -260 37 -283 23 -17 63 -17 86 0 30 23 37 74 37 283
l0 203 420 0 420 0 0 -1810 0 -1810 -1520 0 -1520 0 0 453 c0 273 -4 466 -10
488 -21 75 -119 75 -140 0 -13 -47 -14 -984 0 -1030 18 -65 -148 -60 2062 -61
1512 0 2023 3 2043 12 16 7 29 24 35 49 7 24 9 683 8 1924 l-3 1887 -28 24
-28 24 -468 0 -468 0 -6 313 c-6 350 -9 375 -79 517 -32 67 -58 102 -122 166
-139 138 -280 199 -466 199 -144 0 -270 -35 -371 -102 l-39 -26 -37 25 c-50
33 -123 65 -192 83 -82 22 -234 28 -307 11z m238 -147 c59 -13 178 -63 178
-76 0 -4 -15 -29 -33 -55 -19 -26 -46 -73 -60 -105 -54 -121 -59 -155 -64
-490 l-6 -313 -318 0 -319 0 0 308 c0 253 3 318 16 362 76 257 349 423 606
369z m817 -4 c176 -42 333 -191 385 -365 13 -44 16 -109 16 -362 l0 -308 -319
0 -318 0 -6 313 c-5 335 -10 369 -64 490 -14 32 -41 79 -60 105 -18 26 -33 51
-33 55 0 12 106 59 165 73 69 17 158 16 234 -1z m-489 -211 c13 -20 33 -55 43
-78 45 -97 47 -118 47 -438 l0 -308 -120 0 -120 0 0 303 c0 314 4 350 47 443
20 44 65 114 73 114 3 0 16 -16 30 -36z m1490 -2607 l0 -1632 -120 -120 -120
-120 0 1753 0 1752 120 0 120 0 0 -1633z m400 -119 l0 -1753 -120 120 -120
120 0 1632 0 1633 120 0 120 0 0 -1752z m-210 -1763 l105 -105 -215 0 -215 0
105 105 c58 58 107 105 110 105 3 0 52 -47 110 -105z"/>
</g>
</svg>
